<?xml version="1.0" encoding="UTF-8"?>
<svg id="Layer_2" data-name="Layer 2" xmlns="http://www.w3.org/2000/svg" xmlns:xlink="http://www.w3.org/1999/xlink" version="1.1" viewBox="0 0 1273.28 383.24">
  <defs>
    <style>
      .cls-1 {
        fill: #ff9e18;
      }

      .cls-1, .cls-2, .cls-3 {
        stroke-width: 0px;
      }

      .cls-4 {
        clip-path: url(#clippath);
      }

      .cls-2 {
        fill: none;
      }

      .cls-3 {
        fill: #fff;
      }
    </style>
    <clipPath id="clippath">
      <rect class="cls-2" x="127.74" y="86.7" width="397.16" height="190.88"/>
    </clipPath>
  </defs>
  <path class="cls-1" d="M277.38,961.51"/>
  <g class="cls-4">
    <path class="cls-1" d="M316.37,197.17"/>
    <path class="cls-3" d="M375.78,278.1s3.66-16.06,3.96-17.22c2.15-8.38,4.64-16.67,7.54-24.81,3.37-9.45,7.29-18.73,11.99-27.6s10.21-18.4,17.04-26.17c9.57-10.9,21.93-21.06,36.04-24.99,8.31-2.31,15.76-2.45,24.13-.05,8.76,2.52,15.08,7.38,19.95,12.56,2.51,2.67,4.8,5.56,6.92,8.55,7.68,10.8,13.23,23.09,17.51,35.58,4.7,13.71,7.9,27.97,9.51,42.37.14,1.28.27,2.57.39,3.85,0,0-1.8,5.25-1.8,5.25.18-.53-.48-2.04-.61-2.6-.24-1.02-.48-2.03-.73-3.05-.47-1.93-.95-3.86-1.44-5.79-.96-3.76-1.97-7.5-3.04-11.23-2.01-7-4.51-12.21-7.44-18.88-5.22-11.88-10.56-24.61-18.26-34.05-6.11-7.5-12.35-13.86-21.84-14.69-6.88-.6-13.98.89-19.58,4.87-4.77,3.39-8.41,8.13-11.54,13.07-9.08,14.31-14.92,30.49-19.66,46.69-1.77,6.04-3.34,12.15-4.76,18.29-.75,3.25-4.22,25.29-4.23,25.29,0,0-40.05-5.25-40.05-5.25Z"/>
    <path class="cls-3" d="M284.93,279.57c3.2-13.3,12.84-48.37,32.46-83.01,32.78-57.87,71.57-88.33,124.92-87.23,17.72.37,39.04,7.21,52.61,21.4,27.69,28.97,38.23,81,37.56,95.89l-1.47,3.27c-10.82-43.28-29.06-90.47-71.15-94.45-2.42-.23-4.85-.35-7.23-.35-35.65,0-64.88,24.8-87.13,74.31-13.51,30.06-20.05,59.7-22.09,70.16h-58.47Z"/>
    <path class="cls-3" d="M186.37,291.91c-2.64,0-4.66,0-6.21-.01,3.91-19.92,16.91-66.32,44.43-110.63,24.28-39.1,66.51-85.71,129.78-85.71.74,0,1.51,0,2.26.02,95.85,1.63,148.55,121.08,174.26,180.56l-2.58,4.95c-24.02-44.5-89.84-152.81-160.96-152.81-3.72,0-7.45.3-11.09.9-32.24,5.3-59.96,35.01-82.38,88.32-13.21,31.4-20.72,62.2-23.1,74.08-11.58.09-46.13.34-64.41.34Z"/>
    <path class="cls-3" d="M516.14,280.54c-92.61-88.81-169.52-102.12-207.22-102.12-72.63,0-143.81,20.28-181.33,51.66-9.85,8.42-18.54,16.89-26.57,25.86-.2-5.63.86-16.91,4.86-32.85,4.81-19.19,11.43-34.63,16.85-39.33,11.07-9.6,31.78-19.09,56.83-26.03,29.74-8.25,63.94-12.6,98.9-12.6,9.05,0,18.27.29,27.38.87,50.39,3.21,129.07,29.22,218.84,134.4l-8.54.13Z"/>
    <path class="cls-3" d="M109.85,302.69c-5.87,0-10.38-6.64-12.64-12.86-3.22-8.85-2.43-17.28.32-19.59,50.05-41.99,141.96-64.64,203.03-64.64,44.34,0,91.94,12.18,141.45,36.19,22.3,10.82,44.11,23.64,64.98,38.19l-10.87.55c-5.25-2.2-10.79-4.72-16.64-7.37-35.3-16.03-78.08-38.67-165.31-38.67-4.68,0-9.49.07-14.3.19-85.93,2.28-167.79,55.03-183.33,65.59-2.37,1.61-4.63,2.43-6.7,2.43Z"/>
  </g>
  <g>
    <path class="cls-3" d="M1121.45,206.36h-8v71.18h8v-71.18ZM1090.59,266.65c-3.09,4.27-8.54,6.4-14.19,6.4-7.47,0-12.7-4.69-12.7-11.2s5.23-11.31,12.7-11.31c5.66,0,11.1,2.13,14.19,6.4v9.71ZM1098.59,277.53v-35.43c0-12.49-9.07-17.4-19.95-17.4-8.43,0-15.05,2.78-20.6,8.54l3.74,5.55c4.59-4.91,9.6-7.15,15.79-7.15,7.47,0,13.02,3.95,13.02,10.88v9.28c-4.16-4.8-10.03-7.04-17.07-7.04-8.75,0-18.03,5.44-18.03,16.97s9.28,17.08,18.03,17.08c6.93,0,12.8-2.45,17.07-7.15v5.87h8ZM1043.76,277.53v-36.17c0-11.21-5.66-16.65-16.43-16.65-7.69,0-14.73,4.48-18.36,8.75v-7.47h-8v51.54h8v-37.67c2.99-4.16,8.96-8,15.26-8,6.94,0,11.53,2.88,11.53,11.95v33.72h8ZM963.39,271.67c-10.99,0-17.18-9.39-17.18-19.95s6.19-19.85,17.18-19.85,17.08,9.39,17.08,19.85-6.08,19.95-17.08,19.95M963.39,278.81c15.69,0,25.51-12.17,25.51-27.1s-9.82-27-25.51-27-25.5,12.06-25.5,27,9.82,27.1,25.5,27.1M926.26,225.99h-8v51.54h8v-51.54ZM922.2,217.35c2.99,0,5.44-2.45,5.44-5.44s-2.45-5.34-5.44-5.34-5.34,2.35-5.34,5.34,2.45,5.44,5.34,5.44M900.16,278.81c4.69,0,7.58-1.39,9.6-3.31l-2.35-5.97c-1.07,1.17-3.2,2.13-5.44,2.13-3.52,0-5.23-2.78-5.23-6.62v-32.01h10.46v-7.04h-10.46v-14.08h-8v14.08h-8.54v7.04h8.54v33.72c0,7.69,3.84,12.06,11.42,12.06M864.14,266.65c-3.09,4.27-8.54,6.4-14.19,6.4-7.47,0-12.7-4.69-12.7-11.2s5.23-11.31,12.7-11.31c5.65,0,11.1,2.13,14.19,6.4v9.71ZM872.15,277.53v-35.43c0-12.49-9.07-17.4-19.95-17.4-8.43,0-15.05,2.78-20.6,8.54l3.74,5.55c4.59-4.91,9.6-7.15,15.79-7.15,7.47,0,13.02,3.95,13.02,10.88v9.28c-4.16-4.8-10.03-7.04-17.07-7.04-8.75,0-18.03,5.44-18.03,16.97s9.28,17.08,18.03,17.08c6.93,0,12.8-2.45,17.07-7.15v5.87h8ZM817.31,277.53v-36.17c0-11.21-5.66-16.65-16.43-16.65-7.69,0-14.73,4.48-18.36,8.75v-7.47h-8v51.54h8v-37.67c2.99-4.16,8.96-8,15.26-8,6.94,0,11.53,2.88,11.53,11.95v33.72h8ZM748.27,277.53v-36.5c2.35-4.16,9.07-8.21,13.98-8.21,1.28,0,2.24.11,3.2.32v-8.21c-7.04,0-13.02,3.95-17.18,9.39v-8.32h-8v51.54h8ZM703.57,231.33c11.74,0,16.86,9.5,16.97,17.18h-33.83c.43-7.9,5.87-17.18,16.86-17.18M678.28,251.71c0,16.11,10.99,27.1,26.25,27.1,8.43,0,15.37-2.78,20.49-7.9l-3.84-5.23c-4.06,4.16-10.03,6.51-15.9,6.51-11.1,0-17.93-8.11-18.57-17.82h41.72v-2.03c0-15.47-9.18-27.64-24.76-27.64-14.73,0-25.4,12.06-25.4,27M665.28,278.81c4.7,0,7.58-1.39,9.6-3.31l-2.35-5.97c-1.07,1.17-3.2,2.13-5.44,2.13-3.52,0-5.23-2.78-5.23-6.62v-32.01h10.46v-7.04h-10.46v-14.08h-8v14.08h-8.54v7.04h8.54v33.72c0,7.69,3.84,12.06,11.42,12.06M637.04,277.53v-36.17c0-11.21-5.66-16.65-16.43-16.65-7.69,0-14.73,4.48-18.36,8.75v-7.47h-8v51.54h8v-37.67c2.99-4.16,8.96-8,15.26-8,6.94,0,11.53,2.88,11.53,11.95v33.72h8ZM578.56,206.36h-8.86v71.18h8.86v-71.18Z"/>
    <path class="cls-3" d="M1091.93,188.74v-36.5c2.35-4.16,9.07-8.21,13.98-8.21,1.28,0,2.24.11,3.2.32v-8.21c-7.04,0-13.02,3.95-17.18,9.39v-8.32h-8v51.54h8ZM1047.43,182.87c-10.99,0-17.18-9.39-17.18-19.95s6.19-19.85,17.18-19.85,17.07,9.39,17.07,19.85-6.08,19.95-17.07,19.95M1047.43,190.02c15.69,0,25.5-12.17,25.5-27.1s-9.82-27-25.5-27-25.51,12.06-25.51,27,9.82,27.1,25.51,27.1M1009.92,190.02c4.7,0,7.58-1.39,9.6-3.31l-2.35-5.97c-1.07,1.17-3.2,2.13-5.44,2.13-3.52,0-5.23-2.78-5.23-6.62v-32.01h10.46v-7.04h-10.46v-14.08h-8v14.08h-8.54v7.04h8.54v33.72c0,7.69,3.84,12.06,11.42,12.06M982.45,137.19h-8v51.54h8v-51.54ZM978.4,128.55c2.99,0,5.44-2.45,5.44-5.44s-2.45-5.34-5.44-5.34-5.34,2.35-5.34,5.34,2.45,5.44,5.34,5.44M960.82,188.74v-36.17c0-11.21-5.65-16.65-16.43-16.65-7.68,0-14.73,4.48-18.35,8.75v-7.47h-8v51.54h8v-37.67c2.99-4.16,8.96-8,15.26-8,6.93,0,11.52,2.88,11.52,11.95v33.72h8ZM881.52,182.87c-10.99,0-17.18-9.39-17.18-19.95s6.19-19.85,17.18-19.85,17.08,9.39,17.08,19.85-6.08,19.95-17.08,19.95M881.52,190.02c15.69,0,25.51-12.17,25.51-27.1s-9.82-27-25.51-27-25.5,12.06-25.5,27,9.82,27.1,25.5,27.1M845.09,188.74v-37.24c0-10.35-5.02-15.58-14.4-15.58-7.47,0-14.4,4.91-17.29,9.6-1.5-5.33-5.97-9.6-13.87-9.6s-14.51,5.44-16.65,8.75v-7.47h-8v51.54h8v-37.67c2.78-4.16,8.32-8,13.55-8,6.72,0,9.5,4.16,9.5,10.67v35h8v-37.78c2.67-4.05,8.32-7.9,13.66-7.9,6.61,0,9.49,4.16,9.49,10.67v35h8ZM738.38,182.87c-10.99,0-17.18-9.39-17.18-19.95s6.19-19.85,17.18-19.85,17.08,9.39,17.08,19.85-6.08,19.95-17.08,19.95M738.38,190.02c15.69,0,25.51-12.17,25.51-27.1s-9.82-27-25.51-27-25.51,12.06-25.51,27,9.82,27.1,25.51,27.1M691.73,188.74v-36.5c2.35-4.16,9.07-8.21,13.98-8.21,1.28,0,2.24.11,3.2.32v-8.21c-7.04,0-13.02,3.95-17.18,9.39v-8.32h-8v51.54h8ZM669.88,188.74v-51.54h-8v37.89c-2.99,4.16-8.96,7.79-15.26,7.79-6.93,0-11.52-2.67-11.52-11.74v-33.94h-8v36.39c0,11.21,5.65,16.43,16.43,16.43,7.68,0,14.4-4.06,18.35-8.54v7.26h8ZM616.33,188.74v-7.9h-37.78v-24.54h37.03v-7.9h-37.03v-22.94h37.78v-7.9h-46.63v71.18h46.63Z"/>
  </g>
</svg>