<svg width="24" height="18" viewBox="0 0 24 18" fill="none" xmlns="http://www.w3.org/2000/svg">
<path d="M13.1033 9.98941H23.7914C23.9085 9.98941 24.0034 9.89607 24 9.78208C23.9872 9.25261 23.8991 7.77818 23.3467 6.1848C23.3091 6.07742 23.1868 6.02207 23.0765 6.06007L13.0315 9.59788C12.8117 9.67553 12.869 9.98941 13.1033 9.98941Z" fill="#00ADD9"/>
<path d="M10.2499 9.62761L19.3816 6.42268C19.4936 6.38303 19.5492 6.26243 19.5039 6.15588C19.2653 5.60493 18.482 3.98925 16.9642 2.60237C15.1941 0.987516 13.2924 0.314316 11.9114 0.00538692C11.7942 -0.0210455 11.6788 0.0524702 11.6582 0.167286L9.97281 9.40211C9.94459 9.55492 10.0985 9.68048 10.2499 9.62679" fill="#00ADD9"/>
<path d="M9.88191 10.87H16.7596C16.881 10.87 16.9776 10.9691 16.9682 11.0864C16.9101 11.8166 16.5441 14.2467 14.2199 16.1242C14.2199 16.1242 12.0257 18.0844 8.66765 17.8035C8.54622 17.7936 8.46071 17.6829 8.48209 17.5665L9.67583 11.036C9.69378 10.9394 9.78015 10.8691 9.88191 10.8691" fill="#34657F"/>
<g style="mix-blend-mode:multiply">
<path d="M8.66932 11.4481L7.85867 15.8673C7.83729 15.9838 7.71672 16.059 7.59872 16.0267C6.9437 15.8508 4.99404 15.1644 3.91147 13.0333C3.85759 12.9267 3.91403 12.7979 4.02947 12.7574L8.39312 11.2218C8.54447 11.169 8.69839 11.2937 8.67017 11.4465" fill="#A83D72"/>
</g>
<g style="mix-blend-mode:multiply">
<path d="M8.07427 10.3875L0.645896 13.0035C0.532166 13.0431 0.40732 12.9828 0.373971 12.8705C0.206369 12.308 -0.201521 10.6658 0.120002 8.91222C0.471454 6.99009 1.37531 5.71472 1.78833 5.17038C1.86016 5.07622 1.99869 5.06052 2.09104 5.13569L8.13755 10.043C8.26068 10.143 8.22562 10.3338 8.07427 10.3875Z" fill="#FF6A13"/>
</g>
<g style="mix-blend-mode:multiply">
<path d="M8.72923 9.37233L4.07741 5.60159C3.98335 5.52559 3.97651 5.38847 4.06287 5.30505C4.4357 4.9449 5.4473 4.05859 6.79924 3.60429C8.2153 3.12685 9.44239 3.18467 9.95033 3.23341C10.0709 3.24497 10.1556 3.354 10.1342 3.46965L9.06785 9.25339C9.03963 9.4062 8.85065 9.47228 8.72752 9.37233" fill="#FF9E1B"/>
</g>
</svg>
