<?xml version="1.0" encoding="UTF-8"?>
<svg id="Layer_1" data-name="Layer 1" xmlns="http://www.w3.org/2000/svg" version="1.1" viewBox="0 0 1139.07 383.24">
  <defs>
    <style>
      .cls-1 {
        fill: #34657f;
      }

      .cls-1, .cls-2, .cls-3, .cls-4, .cls-5, .cls-6, .cls-7 {
        strokeWidth: 0px;
      }

      .cls-2 {
        fill: #ff9e18;
      }

      .cls-3 {
        fill: #ff9e1b;
      }

      .cls-3, .cls-5, .cls-8, .cls-7 {
        isolation: isolate;
      }

      .cls-3, .cls-5, .cls-7 {
        mix-blend-mode: multiply;
      }

      .cls-4 {
        fill: #000;
      }

      .cls-5 {
        fill: #a83d72;
      }

      .cls-6 {
        fill: #00add9;
      }

      .cls-7 {
        fill: #ff6a13;
      }
    </style>
  </defs>
  <g class="cls-8">
    <g id="Layer_2" data-name="Layer 2">
      <path class="cls-2" d="M277.38,961.51"/>
      <g>
        <path class="cls-4" d="M950.66,242.2c5.52,0,8.91-1.63,11.3-3.89l-2.76-7.03c-1.26,1.38-3.77,2.51-6.4,2.51-4.14,0-6.15-3.26-6.15-7.78v-37.67h12.31v-8.29h-12.31v-16.57h-9.42v16.57h-10.04v8.29h10.04v39.68c0,9.04,4.52,14.19,13.44,14.19M901.23,240.7v-42.94c2.76-4.9,10.67-9.67,16.45-9.67,1.51,0,2.64.13,3.77.38v-9.67c-8.29,0-15.32,4.65-20.21,11.05v-9.79h-9.42v60.65h9.42-.01ZM848.86,233.79c-12.93,0-20.21-11.05-20.21-23.48s7.28-23.35,20.21-23.35,20.09,11.05,20.09,23.35-7.16,23.48-20.09,23.48M848.86,242.2c18.46,0,30.01-14.31,30.01-31.89s-11.55-31.77-30.01-31.77-30.01,14.19-30.01,31.77,11.55,31.89,30.01,31.89M799.19,210.31c0,13.44-7.28,23.48-19.46,23.48-7.41,0-14.82-4.52-18.08-9.79v-27.37c3.27-5.27,10.67-9.67,18.08-9.67,12.18,0,19.46,9.92,19.46,23.35M761.64,231.53c4.9,6.78,12.18,10.67,20.47,10.67,15.95,0,27-12.31,27-31.89s-11.05-31.77-27-31.77c-8.54,0-16.07,4.39-20.47,10.55v-9.04h-9.42v83.75h9.42v-32.27h0ZM691.23,232.66c6.15,6.53,14.56,9.54,24.48,9.54,15.69,0,23.86-8.16,23.86-18.33,0-13.44-12.18-16.45-22.73-18.83-7.91-1.88-14.82-3.77-14.82-9.67,0-5.4,5.15-9.17,13.44-9.17,7.79,0,14.44,3.26,18.08,7.66l4.39-6.53c-4.9-4.9-12.18-8.79-22.48-8.79-14.44,0-22.6,8.04-22.6,17.45,0,12.56,11.68,15.32,21.97,17.71,8.16,2.01,15.57,4.14,15.57,10.8,0,5.9-5.02,10.05-14.31,10.05-8.29,0-15.95-4.02-19.96-8.66l-4.9,6.78h.01ZM635.01,232.66c6.15,6.53,14.57,9.54,24.48,9.54,15.7,0,23.86-8.16,23.86-18.33,0-13.44-12.18-16.45-22.73-18.83-7.91-1.88-14.82-3.77-14.82-9.67,0-5.4,5.15-9.17,13.43-9.17,7.79,0,14.44,3.26,18.08,7.66l4.4-6.53c-4.9-4.9-12.18-8.79-22.48-8.79-14.44,0-22.6,8.04-22.6,17.45,0,12.56,11.68,15.32,21.97,17.71,8.16,2.01,15.57,4.14,15.57,10.8,0,5.9-5.02,10.05-14.31,10.05-8.29,0-15.95-4.02-19.96-8.66l-4.9,6.78h.01ZM614.44,227.89c-3.64,5.02-10.04,7.53-16.7,7.53-8.79,0-14.94-5.53-14.94-13.18s6.15-13.31,14.94-13.31c6.65,0,13.06,2.51,16.7,7.53v11.43h0ZM623.85,240.7v-41.69c0-14.69-10.67-20.47-23.48-20.47-9.92,0-17.7,3.27-24.23,10.04l4.4,6.53c5.4-5.77,11.3-8.41,18.58-8.41,8.79,0,15.32,4.65,15.32,12.81v10.92c-4.9-5.65-11.8-8.29-20.09-8.29-10.3,0-21.22,6.4-21.22,19.96s10.92,20.09,21.22,20.09c8.16,0,15.07-2.89,20.09-8.41v6.91h9.42-.01ZM559.08,182.18c0,9.42-6.78,15.95-16.7,15.95h-21.97v-31.89h21.97c9.92,0,16.7,6.53,16.7,15.95M520.4,240.7v-33.27h23.23c16.58,0,26.24-11.55,26.24-25.24s-9.42-25.24-26.24-25.24h-33.65v83.75h10.42Z"/>
        <path class="cls-6" d="M330.38,205.14h124.99c1.37,0,2.48-1.13,2.44-2.51-.15-6.41-1.18-24.26-7.64-43.55-.44-1.3-1.87-1.97-3.16-1.51l-117.47,42.83c-2.57.94-1.9,4.74.84,4.74"/>
        <path class="cls-6" d="M297.01,200.76l106.79-38.8c1.31-.48,1.96-1.94,1.43-3.23-2.79-6.67-11.95-26.23-29.7-43.02-20.7-19.55-42.94-27.7-59.09-31.44-1.37-.32-2.72.57-2.96,1.96l-19.71,111.8c-.33,1.85,1.47,3.37,3.24,2.72"/>
        <path class="cls-1" d="M292.71,215.8h80.43c1.42,0,2.55,1.2,2.44,2.62-.68,8.84-4.96,38.26-32.14,60.99,0,0-25.66,23.73-64.93,20.33-1.42-.12-2.42-1.46-2.17-2.87l13.96-79.06c.21-1.17,1.22-2.02,2.41-2.02"/>
        <path class="cls-5" d="M278.53,222.8l-9.48,53.5c-.25,1.41-1.66,2.32-3.04,1.93-7.66-2.13-30.46-10.44-43.12-36.24-.63-1.29.03-2.85,1.38-3.34l51.03-18.59c1.77-.64,3.57.87,3.24,2.72"/>
        <path class="cls-7" d="M271.57,209.96l-86.87,31.67c-1.33.48-2.79-.25-3.18-1.61-1.96-6.81-6.73-26.69-2.97-47.92,4.11-23.27,14.68-38.71,19.51-45.3.84-1.14,2.46-1.33,3.54-.42l70.71,59.41c1.44,1.21,1.03,3.52-.74,4.17"/>
        <path class="cls-3" d="M279.23,197.67l-54.4-45.65c-1.1-.92-1.18-2.58-.17-3.59,4.36-4.36,16.19-15.09,32-20.59,16.56-5.78,30.91-5.08,36.85-4.49,1.41.14,2.4,1.46,2.15,2.86l-12.47,70.02c-.33,1.85-2.54,2.65-3.98,1.44"/>
      </g>
    </g>
  </g>
</svg>